<?xml version="1.0" encoding="utf-8"?>
<!-- Generator: Adobe Illustrator 24.0.1, SVG Export Plug-In . SVG Version: 6.00 Build 0)  -->
<svg version="1.1" id="Layer_1" xmlns="http://www.w3.org/2000/svg" xmlns:xlink="http://www.w3.org/1999/xlink" x="0px" y="0px"
	 viewBox="0 0 460 210" style="enable-background:new 0 0 460 210;" xml:space="preserve">
<style type="text/css">
	.st0{fill:#FFFFFF;}
</style>
<path class="st0" d="M35.2,134.7h-2.1c-0.9-2.3-2-4.3-3.3-6.1c-1.3-1.8-2.5-2.6-3.6-2.6h-5.3c-0.8,0-1.3,0.6-1.3,1.8v17.9h4.1
	c1.2,0,1.8-0.4,1.8-1.3v-1.6h0.6v6.8h-0.6V148c0-0.8-0.6-1.3-1.8-1.3h-4.1v20.1c0,1.1,0.4,1.7,1.3,1.8h1.6v0.6H4.6v-0.6h1.6
	c0.8,0,1.3-0.6,1.3-1.9v-38.8c0-1.3-0.4-1.9-1.3-1.9H4.6v-0.6h31.3C35.7,126.7,35.5,129.8,35.2,134.7"/>
<path class="st0" d="M54.7,168.6h1.6v0.6H38.4v-0.6H40c0.8,0,1.3-0.6,1.3-1.9v-38.4c0-1.6-0.7-2.4-2.1-2.4l-0.7,0.1v-0.5
	c7.3-1.5,12.2-3.1,14.8-4.7l0.3,0.3v45.8C53.5,167.9,53.9,168.5,54.7,168.6"/>
<path class="st0" d="M81.3,165.8c0.6-1.9,0.9-4.3,0.9-7.3c0-1.8-0.1-3.7-0.4-5.6c-0.3-2.7-0.9-5.1-1.6-7.3c-0.7-2.2-1.5-4-2.4-5.3
	c-0.9-1.3-1.8-1.9-2.7-1.9c-1.1,0-1.9,0.9-2.6,2.8c-0.6,1.9-0.9,4.3-0.9,7.3c0,1.8,0.1,3.6,0.4,5.6c0.3,2.7,0.9,5.1,1.6,7.3
	c0.7,2.2,1.5,4,2.4,5.2c0.9,1.3,1.8,1.9,2.6,1.9C79.8,168.6,80.7,167.7,81.3,165.8 M86,139.3c2.8,1.5,5,3.5,6.7,6
	c1.6,2.5,2.5,5.2,2.5,8.2c0,3-0.7,5.8-2.2,8.3c-1.5,2.5-3.6,4.5-6.3,5.9c-2.8,1.5-6,2.2-9.6,2.2c-3.7,0-6.9-0.7-9.7-2.2
	c-2.8-1.5-4.9-3.4-6.3-5.9c-1.4-2.5-2.2-5.3-2.2-8.4c0-3,0.8-5.8,2.3-8.3c1.5-2.5,3.7-4.5,6.4-5.9c2.8-1.5,5.9-2.2,9.5-2.2
	C80.2,137.1,83.2,137.8,86,139.3"/>
<path class="st0" d="M148.9,138.5c-0.8,0-1.4,0.6-1.7,1.8l-6.8,25.5c-0.1,0.5-0.1,0.8-0.1,1c0,0.6,0.1,1,0.4,1.3
	c0.3,0.3,0.6,0.4,0.9,0.5h1l0.2,0.6H140h-4.7h-2.7c-1.7-0.1-3-0.5-4-1.1c-1-0.7-1.8-2-2.3-4.1l-3.4-13.1l-3.9,14.9
	c-0.1,0.2-0.1,0.6-0.1,1.1c0,0.5,0.1,1,0.4,1.3c0.3,0.3,0.6,0.4,0.9,0.4h1l0.2,0.6h-2.9h-4.6h-2.8c-1.6,0-2.9-0.4-3.9-1.1
	c-1-0.7-1.7-2.1-2.3-4.1l-6.3-23.5c-0.4-1.3-1-2-1.8-2h-1.6l-0.2-0.6H113l0.2,0.6h-1.6c-0.6,0-0.9,0.3-0.9,1c0,0.2,0,0.4,0.1,0.8
	l6.9,26.3l4.6-17.5c-1.4-5.1-2.2-8-2.3-8.7c-0.3-1.3-0.9-1.9-1.8-1.9h-1.6l-0.2-0.6h18l0.1,0.6h-1.6c-0.6,0-0.9,0.4-0.9,1.1
	c0,0.3,0,0.5,0.1,0.7l6.9,26.3l6.9-26.2c0.1-0.4,0.1-0.7,0.1-0.9c0-0.6-0.3-1-0.9-1h-1.6l0.1-0.6h6.6l-0.1,0.6H148.9z"/>
<path class="st0" d="M162.5,155.3l6-3.5c-0.1-2.6-0.6-5.4-1.4-8.3c-0.8-2.9-2-4.3-3.4-4.3c-0.2,0-0.4,0-0.6,0.1
	c-0.7,0.2-1.3,1-1.7,2.4c-0.4,1.4-0.6,3-0.6,4.9c0,2.7,0.4,5.3,1.3,7.6C162.3,154.9,162.5,155.2,162.5,155.3 M181,161.5
	c-1.2,2.2-3,4-5.5,5.6c-2.5,1.6-5.5,2.4-9.1,2.4c-3.2,0-6.1-0.6-8.6-1.9c-2.6-1.3-4.6-3.1-6.2-5.5c-1.5-2.4-2.3-5.3-2.3-8.6
	c0-3.1,0.8-5.9,2.5-8.3c1.6-2.4,3.9-4.3,6.6-5.6c2.8-1.3,5.8-2,9-2c1.8,0,3.5,0.3,5.3,0.9c1.8,0.6,3.3,1.6,4.6,3
	c1.3,1.4,2.2,3.2,2.5,5.4l-17,9.2c1,2,2.4,3.5,4,4.5c1.6,1,3.3,1.5,5.2,1.5c2.1,0,4.1-0.6,5.9-1.8c1.9-1.2,3.4-2.9,4.4-5.1l0.2,0.4
	C182.8,157.4,182.2,159.3,181,161.5"/>
<path class="st0" d="M213.8,137.3c2,0,3.6,0.5,5,1.4c1.4,1,2.2,2.4,2.7,4.3c0.1,0.7,0.2,1.3,0.2,1.9c0,2-0.7,3.6-2.1,4.8
	c-1.4,1.2-3,1.8-4.9,1.8c-1.6,0-3-0.5-4.2-1.4c-1.2-0.9-1.9-2.3-2.2-4.1c-0.4-2.8-1.3-4.3-2.7-4.3c-0.8,0-1.6,0.4-2.6,1.2
	c-0.9,0.8-1.8,1.7-2.5,2.7v21.2c0,1.2,0.4,1.8,1.3,1.8h1.6v0.6h-17.9v-0.6h1.6c0.8,0,1.3-0.6,1.3-1.9v-21.2c0-1.6-0.7-2.4-2.2-2.4
	l-0.7,0.1v-0.5c7.3-1.5,12.2-3,14.9-4.7l0.2,0.3v6.2c0.9-1.1,2.1-2.3,3.6-3.4c1.5-1.2,3.1-2.1,4.7-2.7
	C210.6,137.6,212.3,137.3,213.8,137.3"/>
<path class="st0" d="M254.5,157.2c2,1.6,4.2,2.4,6.7,2.4c2.2,0,4.2-0.6,6.1-1.8c1.8-1.2,3-2.8,3.6-4.8c0.7,0.9,1,2.1,1,3.6
	c0,2-0.6,4-1.7,6c-1.1,2-2.8,3.8-5.2,5.1c-2.3,1.4-5.2,2.1-8.5,2.1c-3.8,0-7.1-0.9-10.1-2.8c-3-1.9-5.4-4.5-7.1-7.8
	c-1.7-3.3-2.6-6.9-2.6-11c0-4.4,1-8.4,3-12c2-3.6,4.7-6.4,8.1-8.5c3.4-2.1,7.1-3.1,11.2-3.1c2.3,0,4.5,0.4,6.4,1.1
	c2,0.8,3.5,1.7,4.5,2.8c1.5,1.6,2.3,3.3,2.3,5.2c0,1.8-0.7,3.4-2.2,4.7c-1.5,1.3-3.3,2-5.5,2c-1,0-2-0.2-3.1-0.5
	c0.5-1.8,0.8-3.5,0.8-5.4c0-2.5-0.5-4.6-1.5-6.4c-1-1.7-2.3-2.6-4-2.6c-0.5,0-0.9,0.1-1.4,0.3c-2,0.6-3.5,2.4-4.7,5.3
	c-1.2,2.9-1.8,6.2-1.8,10c0,3.2,0.4,6.2,1.3,9C251,153.2,252.4,155.6,254.5,157.2"/>
<path class="st0" d="M289.1,155.3l6-3.5c-0.1-2.6-0.6-5.4-1.4-8.3c-0.8-2.9-2-4.3-3.4-4.3c-0.2,0-0.4,0-0.6,0.1
	c-0.7,0.2-1.3,1-1.7,2.4c-0.4,1.4-0.6,3-0.6,4.9c0,2.7,0.4,5.3,1.3,7.6C288.8,154.9,289,155.2,289.1,155.3 M307.6,161.5
	c-1.2,2.2-3,4-5.5,5.6c-2.5,1.6-5.5,2.4-9.1,2.4c-3.2,0-6-0.6-8.6-1.9c-2.6-1.3-4.6-3.1-6.2-5.5c-1.5-2.4-2.3-5.3-2.3-8.6
	c0-3.1,0.8-5.9,2.5-8.3c1.6-2.4,3.9-4.3,6.6-5.6c2.8-1.3,5.8-2,9-2c1.8,0,3.5,0.3,5.3,0.9c1.8,0.6,3.3,1.6,4.6,3
	c1.3,1.4,2.2,3.2,2.5,5.4l-17,9.2c1,2,2.4,3.5,4,4.5c1.6,1,3.3,1.5,5.2,1.5c2.1,0,4.1-0.6,5.9-1.8c1.9-1.2,3.4-2.9,4.4-5.1l0.2,0.4
	C309.3,157.4,308.7,159.3,307.6,161.5"/>
<path class="st0" d="M349.3,169.2h-17.9v-0.6h1.6c0.8,0,1.3-0.6,1.3-1.9v-20.3c0-3-0.8-4.4-2.3-4.4c-0.8,0-1.7,0.4-2.7,1.1
	c-1,0.8-1.8,1.6-2.5,2.5v21.2c0,1.2,0.4,1.8,1.3,1.8h1.6v0.6h-17.9v-0.6h1.6c0.8,0,1.3-0.6,1.3-1.9v-21.2c0-1-0.3-1.6-0.8-2
	c-0.5-0.4-1.2-0.5-2-0.4v-0.5c2.3-0.3,4.8-1,7.7-1.9c2.9-0.9,5.3-1.9,7.1-2.8l0.3,0.3v6.2c0.9-1.2,2.1-2.3,3.6-3.5
	c1.5-1.2,3.1-2,4.7-2.6c1-0.4,2.1-0.6,3.3-0.6c2.3,0,4.2,0.8,5.8,2.3c1.6,1.5,2.4,3.8,2.4,6.9v19.9c0,0.5,0.1,1,0.3,1.3
	c0.2,0.3,0.5,0.5,0.9,0.5h1.6V169.2z"/>
<path class="st0" d="M368.9,138.6h-3.5v28.2c0,1.2,0.4,1.8,1.2,1.8h1.6v0.6l-10.2-0.1c-1.6,0-2.8-0.4-3.7-1.1
	c-0.8-0.7-1.2-2.1-1.2-4.1v-23c0-0.9-0.3-1.5-0.8-1.9c-0.5-0.3-1.1-0.5-1.7-0.5h-1.4v-0.7c3.6,0,6.7-1,9.4-3.1
	c2.6-2.1,4.8-5.2,6.4-9.4l0.4,0.3v12.2h3.5V138.6z"/>
<path class="st0" d="M383.3,155.3l6-3.5c-0.1-2.6-0.6-5.4-1.4-8.3c-0.8-2.9-2-4.3-3.4-4.3c-0.2,0-0.4,0-0.6,0.1
	c-0.7,0.2-1.3,1-1.7,2.4c-0.4,1.4-0.6,3-0.6,4.9c0,2.7,0.4,5.3,1.3,7.6C383.1,154.9,383.3,155.2,383.3,155.3 M401.8,161.5
	c-1.2,2.2-3,4-5.5,5.6c-2.5,1.6-5.5,2.4-9.1,2.4c-3.2,0-6.1-0.6-8.6-1.9c-2.6-1.3-4.6-3.1-6.2-5.5c-1.5-2.4-2.3-5.3-2.3-8.6
	c0-3.1,0.8-5.9,2.5-8.3c1.6-2.4,3.9-4.3,6.6-5.6c2.8-1.3,5.8-2,9-2c1.8,0,3.5,0.3,5.3,0.9c1.8,0.6,3.3,1.6,4.6,3
	c1.3,1.4,2.2,3.2,2.5,5.4l-17,9.2c1,2,2.4,3.5,4,4.5c1.6,1,3.3,1.5,5.2,1.5c2.1,0,4.1-0.6,5.9-1.8c1.9-1.2,3.4-2.9,4.4-5.1l0.2,0.4
	C403.6,157.4,403,159.3,401.8,161.5"/>
<path class="st0" d="M434.5,137.3c2,0,3.6,0.5,5,1.4c1.4,1,2.2,2.4,2.7,4.3c0.1,0.7,0.2,1.3,0.2,1.9c0,2-0.7,3.6-2.1,4.8
	c-1.4,1.2-3,1.8-4.9,1.8c-1.6,0-3-0.5-4.2-1.4c-1.2-0.9-1.9-2.3-2.2-4.1c-0.4-2.8-1.3-4.3-2.7-4.3c-0.8,0-1.6,0.4-2.6,1.2
	c-0.9,0.8-1.8,1.7-2.5,2.7v21.2c0,1.2,0.4,1.8,1.3,1.8h1.6v0.6h-17.9v-0.6h1.6c0.8,0,1.3-0.6,1.3-1.9v-21.2c0-1.6-0.7-2.4-2.2-2.4
	l-0.7,0.1v-0.5c7.3-1.5,12.2-3,14.9-4.7l0.2,0.3v6.2c0.9-1.1,2.1-2.3,3.6-3.4c1.5-1.2,3.1-2.1,4.7-2.7
	C431.4,137.6,433,137.3,434.5,137.3"/>
<path class="st0" d="M446.5,167.6c-1.1-1.1-1.6-2.4-1.6-3.9c0-1.5,0.5-2.8,1.6-3.9c1.1-1.1,2.4-1.6,3.9-1.6c1.5,0,2.9,0.5,3.9,1.6
	c1.1,1.1,1.6,2.4,1.6,3.9c0,1.5-0.5,2.9-1.6,3.9c-1.1,1.1-2.4,1.6-3.9,1.6C448.9,169.2,447.6,168.7,446.5,167.6"/>
<g>
	<path class="st0" d="M260.4,81.3c2.2-2.2,4.1-4.5,5.7-6.8c7.8-10.6,10.3-20.7,10.6-34.3c-7.5,10.1-17.5,16-26.4,23.1
		c-4.6,3.7-8.8,7.6-12.5,11.9c-10.8,10.5-14.5,22-14.5,22c16.1-0.7,27.5-6.9,35.3-14.2c0,0,0,0,0,0c0,0,0,0,0.1-0.1
		c0.2-0.2,0.5-0.5,0.7-0.7c0,0,0,0,0,0c0,0,0,0,0,0C259.8,82,260.1,81.7,260.4,81.3C260.4,81.4,260.4,81.4,260.4,81.3
		C260.4,81.4,260.4,81.3,260.4,81.3"/>
	<path class="st0" d="M182.5,81.3c-2.2-2.2-4.1-4.5-5.7-6.8C169,64,166.5,53.9,166.2,40.3c7.5,10.1,17.5,16,26.4,23.1
		c4.6,3.7,8.8,7.6,12.5,11.9c10.8,10.5,14.5,22,14.5,22c-16.1-0.7-27.5-6.9-35.3-14.2c0,0,0,0,0,0c0,0,0,0-0.1-0.1
		c-0.2-0.2-0.5-0.5-0.7-0.7l0,0c0,0,0,0,0,0C183.1,82,182.8,81.7,182.5,81.3C182.6,81.4,182.5,81.4,182.5,81.3
		C182.5,81.4,182.5,81.3,182.5,81.3"/>
	<path class="st0" d="M221.5,46.5c-6.6,0-11.9-5.3-11.9-11.9s5.3-11.9,11.9-11.9c6.6,0,11.9,5.3,11.9,11.9S228.1,46.5,221.5,46.5
		 M248.4,31.8C246.2,18.5,235,9,221.5,9c-7.4,0-13.9,2.5-19.1,7.8c-6,6-8.7,13.3-7.9,21.8c0.5,4.7,2.4,8.9,4.6,13
		c5.9,11,13.6,20.7,21.9,30c0.5,0.6,0.7,0.3,1.1-0.1c3.6-4,7.1-8.1,10.3-12.4c5-6.6,9.8-13.5,13.3-21.1
		C248,42.8,249.3,37.5,248.4,31.8"/>
</g>
<rect x="3.4" y="192.7" class="st0" width="183.4" height="4.2"/>
<rect x="256.1" y="192.7" class="st0" width="199.6" height="4.2"/>
<path class="st0" d="M194.2,187.3v12.3h3.1c1.2,0,2.3-0.4,3.3-1.2c1.2-1,1.8-2.6,1.8-4.9c0-2.3-0.6-4-1.9-5
	c-0.9-0.8-2.1-1.1-3.5-1.1H194.2z M192.8,186h4.3c2.2,0,3.9,0.6,5.1,1.9c1.3,1.3,1.9,3.1,1.9,5.4c0,1.2-0.2,2.2-0.5,3.2
	c-0.2,0.7-0.6,1.4-1,1.9c-0.4,0.5-0.9,1-1.4,1.3c-0.4,0.3-0.8,0.5-1.4,0.7c-0.9,0.3-2,0.4-3.3,0.4h-3.8V186z"/>
<path class="st0" d="M207.3,186h1.4v9.7c0,1.2,0.3,2.2,1,2.9c0.7,0.7,1.6,1.1,2.8,1.1c0.9,0,1.7-0.2,2.3-0.5c0.6-0.3,1-0.8,1.3-1.4
	c0.3-0.6,0.4-1.3,0.4-2V186h1.5v9.7c0,1.7-0.5,3-1.5,4c-1,1-2.3,1.5-3.9,1.5c-1.3,0-2.4-0.3-3.2-0.8c-0.9-0.5-1.4-1.2-1.8-2.1
	c-0.3-0.8-0.5-1.6-0.5-2.3V186z"/>
<path class="st0" d="M223.7,193.8v5.7h3.9c1.2,0,2.2-0.3,3-1c0.6-0.5,0.8-1.1,0.8-1.9c0-0.5-0.2-1-0.5-1.5c-0.3-0.4-0.8-0.8-1.5-1
	c-0.7-0.2-1.4-0.4-2.3-0.4H223.7z M223.7,187.3v5.3h2.7c1.8,0,3-0.3,3.7-0.8c0.7-0.5,1-1.2,1-1.9c0-0.7-0.3-1.3-0.9-1.8
	c-0.6-0.5-1.5-0.8-2.7-0.8H223.7z M222.3,186h5.1c1.8,0,3.1,0.4,4,1.1c0.9,0.8,1.4,1.6,1.4,2.6c0,0.7-0.2,1.3-0.7,1.9
	c-0.4,0.6-1.1,1.1-2,1.5c1,0.4,1.8,0.9,2.3,1.6c0.5,0.7,0.8,1.4,0.8,2.1c0,1-0.5,1.9-1.4,2.8c-1,0.8-2.3,1.2-4,1.2h-5.4V186z"/>
<path class="st0" d="M239.9,187l-2.5,7.8h5.1L239.9,187z M238.8,186h2.3l4.8,14.9h-1.5l-1.5-4.6h-6l-1.5,4.6H234L238.8,186z"/>
<rect x="248.8" y="186" class="st0" width="1.4" height="14.9"/>
</svg>
